<?xml version="1.0" encoding="UTF-8" standalone="no"?>
<!DOCTYPE svg PUBLIC "-//W3C//DTD SVG 1.1//EN" "http://www.w3.org/Graphics/SVG/1.1/DTD/svg11.dtd">
<svg width="100%" height="100%" viewBox="0 0 2000 1400" version="1.1" xmlns="http://www.w3.org/2000/svg" xmlns:xlink="http://www.w3.org/1999/xlink" xml:space="preserve" xmlns:serif="http://www.serif.com/" style="fill-rule:evenodd;clip-rule:evenodd;stroke-linejoin:round;stroke-miterlimit:1.41421;">
    <g id="BACKGROUND-1" serif:id="BACKGROUND 1" transform="matrix(1,0,0,1,750,450)">
        <g transform="matrix(5,0,0,2.81811,-1000,-450)">
            <rect x="0" y="0" width="500" height="500" style="fill:rgb(0,182,195);"/>
        </g>
        <g transform="matrix(4.30946,0,0,4.30946,688.477,-135.064)">
            <path d="M0,148.964C-1.296,147.668 -1.296,145.546 0,144.25L144.25,0C145.546,-1.296 147.667,-1.296 148.964,0C150.26,1.296 150.26,3.418 148.964,4.714L4.714,148.964C3.418,150.26 1.296,150.26 0,148.964" style="fill:rgb(181,235,245);fill-rule:nonzero;"/>
        </g>
        <g transform="matrix(4.30946,0,0,4.30946,112.131,661.235)">
            <path d="M0,38.234C-2.722,35.512 -2.722,31.057 0,28.334L28.334,0C31.056,-2.722 35.511,-2.722 38.233,0C40.956,2.723 40.956,7.178 38.233,9.9L9.9,38.234C7.177,40.956 2.722,40.956 0,38.234" style="fill:rgb(0,164,164);fill-rule:nonzero;"/>
        </g>
        <g transform="matrix(4.30946,0,0,4.30946,1015.05,423.735)">
            <path d="M0,96.756C-1.296,95.46 -1.296,93.338 0,92.042L92.042,0C93.338,-1.296 95.459,-1.296 96.756,0C98.052,1.297 98.052,3.418 96.756,4.714L4.714,96.756C3.418,98.052 1.296,98.052 0,96.756" style="fill:rgb(0,101,126);fill-rule:nonzero;"/>
        </g>
        <g transform="matrix(4.30946,0,0,4.30946,450.512,-53.2755)">
            <path d="M0,96.756C-1.296,95.46 -1.296,93.338 0,92.042L92.042,0C93.338,-1.296 95.459,-1.296 96.756,0C98.052,1.297 98.052,3.418 96.756,4.714L4.714,96.756C3.418,98.052 1.296,98.052 0,96.756" style="fill:rgb(0,101,126);fill-rule:nonzero;"/>
        </g>
        <g transform="matrix(4.30946,0,0,4.30946,139.614,549.857)">
            <path d="M0,25.479C-1.296,24.183 -1.296,22.061 0,20.765L20.765,0C22.061,-1.296 24.182,-1.296 25.479,0C26.775,1.297 26.775,3.418 25.479,4.714L4.714,25.479C3.418,26.775 1.296,26.775 0,25.479" style="fill:rgb(0,101,126);fill-rule:nonzero;"/>
        </g>
        <g transform="matrix(4.30946,0,0,4.30946,331.631,260.124)">
            <path d="M0,78.96C-2.982,75.978 -2.982,71.099 0,68.118L68.118,0C71.1,-2.982 75.979,-2.982 78.96,0C81.942,2.981 81.942,7.86 78.96,10.842L10.842,78.96C7.861,81.942 2.982,81.942 0,78.96" style="fill:rgb(0,164,164);fill-rule:nonzero;"/>
        </g>
        <g transform="matrix(4.30946,0,0,4.30946,400.526,267.673)">
            <path d="M0,132.936C-7.701,125.235 -7.701,112.634 0,104.933L104.933,0C112.634,-7.701 125.235,-7.701 132.936,0C140.637,7.701 140.637,20.302 132.936,28.003L28.003,132.936C20.302,140.637 7.701,140.637 0,132.936" style="fill:rgb(0,85,113);fill-rule:nonzero;"/>
        </g>
        <g transform="matrix(4.30946,0,0,4.30946,1051.76,363.669)">
            <path d="M0,57.982C-4.994,52.988 -4.994,44.817 0,39.823L39.824,-0.001C44.818,-4.994 52.989,-4.994 57.983,-0.001C62.976,4.993 62.976,13.164 57.983,18.158L18.159,57.982C13.165,62.976 4.994,62.976 0,57.982" style="fill:rgb(0,210,204);fill-rule:nonzero;"/>
        </g>
        <g transform="matrix(4.30946,0,0,4.30946,638.589,706.935)">
            <path d="M0,46.669C-4.994,41.675 -4.994,33.504 0,28.51L28.51,0C33.504,-4.994 41.675,-4.994 46.669,0C51.663,4.994 51.663,13.165 46.669,18.159L18.159,46.669C13.165,51.663 4.994,51.663 0,46.669" style="fill:rgb(0,153,160);fill-rule:nonzero;"/>
        </g>
        <g transform="matrix(4.30946,0,0,4.30946,1170.09,643.062)">
            <path d="M0,46.669C-4.994,41.675 -4.994,33.504 0,28.51L28.51,0C33.504,-4.994 41.676,-4.994 46.669,0C51.663,4.993 51.663,13.165 46.669,18.159L18.159,46.669C13.165,51.663 4.994,51.663 0,46.669" style="fill:rgb(0,153,160);fill-rule:nonzero;"/>
        </g>
        <g transform="matrix(4.30946,0,0,4.30946,685.709,695.309)">
            <path d="M0,78.96C-2.982,75.978 -2.982,71.099 0,68.118L68.118,0C71.1,-2.982 75.979,-2.982 78.96,0C81.942,2.981 81.942,7.86 78.96,10.842L10.842,78.96C7.861,81.942 2.982,81.942 0,78.96" style="fill:rgb(213,221,233);fill-rule:nonzero;"/>
        </g>
        <g transform="matrix(4.30946,0,0,4.30946,589.779,224.579)">
            <path d="M0,132.936C-7.701,125.235 -7.701,112.634 0,104.933L104.933,0C112.634,-7.701 125.235,-7.701 132.936,0C140.637,7.701 140.637,20.302 132.936,28.003L28.003,132.936C20.302,140.637 7.701,140.637 0,132.936" style="fill:rgb(0,164,164);fill-rule:nonzero;"/>
        </g>
        <g transform="matrix(4.30946,0,0,4.30946,879.257,165.059)">
            <path d="M0,101.214C-2.722,98.492 -2.722,94.037 0,91.314L91.314,0C94.036,-2.722 98.491,-2.722 101.213,0L101.214,0C103.936,2.723 103.936,7.178 101.214,9.9L9.9,101.214C7.177,103.936 2.722,103.936 0,101.214" style="fill:rgb(0,85,113);fill-rule:nonzero;"/>
        </g>
        <g transform="matrix(4.30946,0,0,4.30946,395.693,486.351)">
            <path d="M0,27.528C-1.917,25.61 -1.917,22.473 0,20.555L20.554,0.001C22.472,-1.917 25.609,-1.917 27.527,0.001C29.445,1.919 29.445,5.056 27.527,6.974L6.973,27.528C5.055,29.445 1.918,29.445 0,27.528" style="fill:rgb(213,221,233);fill-rule:nonzero;"/>
        </g>
        <g transform="matrix(4.30946,0,0,4.30946,769.76,344.192)">
            <path d="M0,-15.984C-1.113,-17.097 -2.935,-17.097 -4.049,-15.984L-15.983,-4.049C-17.096,-2.936 -17.096,-1.114 -15.983,-0.001C-14.87,1.113 -13.048,1.113 -11.934,-0.001L0,-11.935C1.113,-13.049 1.113,-14.871 0,-15.984" style="fill:rgb(0,85,113);fill-rule:nonzero;"/>
        </g>
        <g transform="matrix(4.30946,0,0,4.30946,898.42,746.726)">
            <path d="M0,-15.983C-1.113,-17.096 -2.935,-17.096 -4.049,-15.983L-15.983,-4.049C-17.096,-2.935 -17.096,-1.113 -15.983,0C-14.87,1.113 -13.048,1.113 -11.934,0L0,-11.934C1.113,-13.048 1.113,-14.87 0,-15.983" style="fill:rgb(0,210,204);fill-rule:nonzero;"/>
        </g>
        <g transform="matrix(4.30946,0,0,4.30946,816.91,100.299)">
            <path d="M0,109.248C-0.583,108.665 -0.583,107.71 0,107.127L107.127,0C107.71,-0.583 108.665,-0.583 109.248,0C109.831,0.583 109.831,1.538 109.248,2.121L2.121,109.248C1.538,109.831 0.583,109.831 0,109.248" style="fill:rgb(213,221,233);fill-rule:nonzero;"/>
        </g>
        <g transform="matrix(4.30946,0,0,4.30946,857.703,-197.199)">
            <path d="M0,82.175C-0.583,81.592 -0.583,80.637 0,80.054L80.054,0C80.637,-0.583 81.592,-0.583 82.175,0C82.758,0.583 82.758,1.538 82.175,2.121L2.121,82.175C1.538,82.758 0.583,82.758 0,82.175" style="fill:rgb(213,221,233);fill-rule:nonzero;"/>
        </g>
        <g transform="matrix(4.30946,0,0,4.30946,934.745,428.448)">
            <path d="M0,109.248C-0.583,108.665 -0.583,107.71 0,107.127L107.127,0C107.71,-0.583 108.665,-0.583 109.248,0C109.831,0.583 109.831,1.538 109.248,2.121L2.121,109.248C1.538,109.831 0.583,109.831 0,109.248" style="fill:rgb(213,221,233);fill-rule:nonzero;"/>
        </g>
        <g transform="matrix(4.30946,0,0,4.30946,191.615,459.642)">
            <path d="M0,28.769C-0.583,28.186 -0.583,27.231 0,26.648L26.647,0.001C27.23,-0.583 28.185,-0.583 28.768,0.001C29.352,0.584 29.352,1.539 28.768,2.122L2.121,28.769C1.538,29.352 0.583,29.352 0,28.769" style="fill:rgb(213,221,233);fill-rule:nonzero;"/>
        </g>
        <g transform="matrix(4.30946,0,0,4.30946,990.322,510.993)">
            <path d="M0,28.769C-0.583,28.186 -0.583,27.231 0,26.648L26.647,0.001C27.23,-0.583 28.185,-0.583 28.768,0.001C29.352,0.584 29.352,1.539 28.768,2.122L2.121,28.769C1.538,29.352 0.583,29.352 0,28.769" style="fill:rgb(0,164,164);fill-rule:nonzero;"/>
        </g>
        <g transform="matrix(4.30946,0,0,4.30946,879.118,-122.419)">
            <path d="M0,28.769C-0.583,28.186 -0.583,27.231 0,26.648L26.647,0.001C27.23,-0.583 28.185,-0.583 28.768,0.001C29.352,0.584 29.352,1.539 28.768,2.122L2.121,28.769C1.538,29.352 0.583,29.352 0,28.769" style="fill:rgb(0,164,164);fill-rule:nonzero;"/>
        </g>
        <g transform="matrix(4.30946,0,0,4.30946,609.46,201.571)">
            <path d="M0,28.769C-0.583,28.186 -0.583,27.231 0,26.648L26.647,0.001C27.23,-0.583 28.185,-0.583 28.768,0.001C29.352,0.584 29.352,1.539 28.768,2.122L2.121,28.769C1.538,29.352 0.583,29.352 0,28.769" style="fill:rgb(213,221,233);fill-rule:nonzero;"/>
        </g>
        <g transform="matrix(4.30946,0,0,4.30946,380.736,745.661)">
            <path d="M0,-15.489C-1.079,-16.568 -2.845,-16.568 -3.924,-15.489L-15.489,-3.923C-16.568,-2.844 -16.568,-1.078 -15.489,0.001C-14.41,1.079 -12.645,1.079 -11.566,0.001L0,-11.565C1.079,-12.644 1.079,-14.41 0,-15.489" style="fill:rgb(0,210,204);fill-rule:nonzero;"/>
        </g>
        <g transform="matrix(4.30946,0,0,4.30946,730.658,521.977)">
            <path d="M0,-15.489C-1.079,-16.568 -2.845,-16.568 -3.924,-15.489L-15.489,-3.923C-16.568,-2.844 -16.568,-1.079 -15.489,0C-14.41,1.079 -12.645,1.079 -11.566,0L0,-11.565C1.079,-12.644 1.079,-14.41 0,-15.489" style="fill:rgb(0,164,164);fill-rule:nonzero;"/>
        </g>
        <g transform="matrix(4.30946,0,0,4.30946,1117.39,710.917)">
            <path d="M0,27.526C-1.917,25.609 -1.917,22.471 0,20.553L20.554,-0.001C22.472,-1.918 25.609,-1.918 27.527,-0.001C29.445,1.917 29.445,5.055 27.527,6.972L6.973,27.526C5.055,29.444 1.918,29.444 0,27.526" style="fill:rgb(0,210,204);fill-rule:nonzero;"/>
        </g>
        <g transform="matrix(4.30946,0,0,4.30946,1172.57,-53.1604)">
            <path d="M0,-7.935C-1.276,-9.212 -3.365,-9.212 -4.642,-7.935L-7.935,-4.642C-9.212,-3.365 -9.212,-1.276 -7.935,0C-6.659,1.277 -4.57,1.277 -3.293,0L0,-3.293C1.277,-4.569 1.277,-6.658 0,-7.935" style="fill:rgb(0,101,126);fill-rule:nonzero;"/>
        </g>
        <g transform="matrix(4.30946,0,0,4.30946,472.105,267.584)">
            <path d="M0,-7.935C-1.277,-9.212 -3.366,-9.212 -4.642,-7.935L-7.935,-4.642C-9.212,-3.365 -9.212,-1.276 -7.935,0C-6.659,1.277 -4.57,1.277 -3.293,0L0,-3.293C1.277,-4.57 1.277,-6.658 0,-7.935" style="fill:rgb(0,210,204);fill-rule:nonzero;"/>
        </g>
        <g transform="matrix(4.30946,0,0,4.30946,816.168,-44.2847)">
            <path d="M0,57.982C-4.994,52.988 -4.994,44.817 0,39.823L39.824,-0.001C44.818,-4.994 52.989,-4.994 57.983,-0.001C62.976,4.993 62.976,13.164 57.983,18.158L18.159,57.982C13.165,62.976 4.994,62.976 0,57.982" style="fill:rgb(0,210,204);fill-rule:nonzero;"/>
        </g>
        <g transform="matrix(4.30946,0,0,4.30946,824.857,43.702)">
            <path d="M0,47.384C-0.583,46.801 -0.583,45.846 0,45.263L45.263,0C45.846,-0.583 46.801,-0.583 47.384,0C47.967,0.583 47.967,1.538 47.384,2.121L2.121,47.384C1.538,47.967 0.583,47.967 0,47.384" style="fill:rgb(0,164,164);fill-rule:nonzero;"/>
        </g>
        <g transform="matrix(4.30946,0,0,4.30946,725.291,691.347)">
            <path d="M0,-7.935C-1.277,-9.212 -3.366,-9.212 -4.642,-7.935L-7.935,-4.642C-9.212,-3.365 -9.212,-1.276 -7.935,0C-6.659,1.277 -4.57,1.277 -3.293,0L0,-3.293C1.277,-4.569 1.277,-6.658 0,-7.935" style="fill:rgb(0,210,204);fill-rule:nonzero;"/>
        </g>
        <g transform="matrix(4.30946,0,0,4.30946,1052.72,712.571)">
            <path d="M0,-7.935C-1.277,-9.212 -3.366,-9.212 -4.642,-7.935L-7.935,-4.642C-9.212,-3.365 -9.212,-1.276 -7.935,0C-6.659,1.277 -4.57,1.277 -3.293,0L0,-3.293C1.277,-4.57 1.277,-6.658 0,-7.935" style="fill:rgb(0,85,113);fill-rule:nonzero;"/>
        </g>
        <g transform="matrix(3.87771,0,0,3.88239,-751.748,-662.724)">
            <path d="M0,148.964C-1.296,147.668 -1.296,145.546 0,144.25L144.25,0C145.546,-1.296 147.667,-1.296 148.964,0C150.26,1.296 150.26,3.418 148.964,4.714L4.714,148.964C3.418,150.26 1.296,150.26 0,148.964" style="fill:rgb(181,235,245);fill-rule:nonzero;"/>
        </g>
        <g transform="matrix(3.87771,0,0,3.88239,-457.892,-159.303)">
            <path d="M0,96.756C-1.296,95.46 -1.296,93.338 0,92.042L92.042,0C93.338,-1.296 95.459,-1.296 96.756,0C98.052,1.297 98.052,3.418 96.756,4.714L4.714,96.756C3.418,98.052 1.296,98.052 0,96.756" style="fill:rgb(0,101,126);fill-rule:nonzero;"/>
        </g>
        <g transform="matrix(3.87771,0,0,3.88239,-790.939,356.035)">
            <path d="M0,51.363C-1.296,50.067 -1.296,47.945 0,46.649L46.649,0C47.945,-1.296 50.066,-1.296 51.363,0C52.659,1.297 52.659,3.418 51.363,4.714L4.714,51.363C3.418,52.659 1.296,52.659 0,51.363" style="fill:rgb(0,101,126);fill-rule:nonzero;"/>
        </g>
        <g transform="matrix(3.87771,0,0,3.88239,-965.872,-589.041)">
            <path d="M0,96.756C-1.296,95.46 -1.296,93.338 0,92.042L92.042,0C93.338,-1.296 95.459,-1.296 96.756,0C98.052,1.297 98.052,3.418 96.756,4.714L4.714,96.756C3.418,98.052 1.296,98.052 0,96.756" style="fill:rgb(0,101,126);fill-rule:nonzero;"/>
        </g>
        <g transform="matrix(3.87771,0,0,3.88239,-1010.85,-299.899)">
            <path d="M0,132.936C-7.701,125.235 -7.701,112.634 0,104.933L104.933,0C112.634,-7.701 125.235,-7.701 132.936,0C140.637,7.701 140.637,20.302 132.936,28.003L28.003,132.936C20.302,140.637 7.701,140.637 0,132.936" style="fill:rgb(0,85,113);fill-rule:nonzero;"/>
        </g>
        <g transform="matrix(3.87771,0,0,3.88239,-424.86,-213.416)">
            <path d="M0,57.982C-4.994,52.988 -4.994,44.817 0,39.823L39.824,-0.001C44.818,-4.994 52.989,-4.994 57.983,-0.001C62.976,4.993 62.976,13.164 57.983,18.158L18.159,57.982C13.165,62.976 4.994,62.976 0,57.982" style="fill:rgb(0,210,204);fill-rule:nonzero;"/>
        </g>
        <g transform="matrix(3.87771,0,0,3.88239,-796.638,95.8314)">
            <path d="M0,46.669C-4.994,41.675 -4.994,33.504 0,28.51L28.51,0C33.504,-4.994 41.675,-4.994 46.669,0C51.663,4.994 51.663,13.165 46.669,18.159L18.158,46.669C13.165,51.663 4.994,51.663 0,46.669" style="fill:rgb(0,153,160);fill-rule:nonzero;"/>
        </g>
        <g transform="matrix(3.87771,0,0,3.88239,-318.387,38.2883)">
            <path d="M0,46.669C-4.994,41.675 -4.994,33.504 0,28.51L28.51,0C33.504,-4.994 41.675,-4.994 46.669,0C51.663,4.993 51.663,13.165 46.669,18.159L18.159,46.669C13.165,51.663 4.994,51.663 0,46.669" style="fill:rgb(0,153,160);fill-rule:nonzero;"/>
        </g>
        <g transform="matrix(3.87771,0,0,3.88239,-754.239,85.3575)">
            <path d="M0,78.96C-2.982,75.978 -2.982,71.099 0,68.118L68.118,0C71.1,-2.982 75.979,-2.982 78.96,0C81.942,2.981 81.942,7.86 78.96,10.842L10.842,78.96C7.861,81.942 2.982,81.942 0,78.96" style="fill:rgb(213,221,233);fill-rule:nonzero;"/>
        </g>
        <g transform="matrix(3.87771,0,0,3.88239,-840.558,-338.722)">
            <path d="M0,132.936C-7.701,125.235 -7.701,112.634 0,104.933L104.933,0C112.634,-7.701 125.235,-7.701 132.936,0C140.637,7.701 140.637,20.302 132.936,28.003L28.003,132.936C20.302,140.637 7.701,140.637 0,132.936" style="fill:rgb(0,164,164);fill-rule:nonzero;"/>
        </g>
        <g transform="matrix(3.87771,0,0,3.88239,-580.082,-392.343)">
            <path d="M0,101.214C-2.722,98.492 -2.722,94.037 0,91.314L91.314,0C94.036,-2.722 98.491,-2.722 101.214,0C103.936,2.723 103.936,7.178 101.214,9.9L9.9,101.214C7.177,103.936 2.722,103.936 0,101.214" style="fill:rgb(0,85,113);fill-rule:nonzero;"/>
        </g>
        <g transform="matrix(3.87771,0,0,3.88239,-244.813,-275.531)">
            <path d="M0,27.527C-1.918,25.609 -1.918,22.472 0,20.554L20.554,0C22.472,-1.917 25.609,-1.917 27.527,0C29.444,1.918 29.444,5.055 27.527,6.973L6.973,27.527C5.055,29.444 1.917,29.444 0,27.527" style="fill:rgb(213,221,233);fill-rule:nonzero;"/>
        </g>
        <g transform="matrix(3.87771,0,0,3.88239,-678.608,-230.967)">
            <path d="M0,-15.983C-1.113,-17.096 -2.935,-17.096 -4.049,-15.983L-15.983,-4.049C-17.097,-2.935 -17.097,-1.113 -15.983,0C-14.87,1.113 -13.048,1.113 -11.934,0L0,-11.934C1.113,-13.048 1.113,-14.87 0,-15.983" style="fill:rgb(0,85,113);fill-rule:nonzero;"/>
        </g>
        <g transform="matrix(3.87771,0,0,3.88239,-562.838,131.68)">
            <path d="M0,-15.983C-1.113,-17.096 -2.935,-17.096 -4.049,-15.983L-15.983,-4.048C-17.097,-2.935 -17.097,-1.113 -15.983,0C-14.87,1.113 -13.048,1.113 -11.934,0L0,-11.934C1.113,-13.048 1.113,-14.87 0,-15.983" style="fill:rgb(0,210,204);fill-rule:nonzero;"/>
        </g>
        <g transform="matrix(3.87771,0,0,3.88239,-636.182,-450.686)">
            <path d="M0,109.248C-0.583,108.665 -0.583,107.71 0,107.127L107.127,0C107.71,-0.583 108.665,-0.583 109.248,0C109.831,0.583 109.831,1.538 109.248,2.121L2.121,109.248C1.538,109.831 0.583,109.831 0,109.248" style="fill:rgb(213,221,233);fill-rule:nonzero;"/>
        </g>
        <g transform="matrix(3.87771,0,0,3.88239,-530.153,-155.057)">
            <path d="M0,109.248C-0.583,108.665 -0.583,107.71 0,107.127L107.127,0C107.71,-0.583 108.665,-0.583 109.248,0C109.831,0.583 109.831,1.538 109.248,2.121L2.121,109.248C1.538,109.831 0.583,109.831 0,109.248" style="fill:rgb(213,221,233);fill-rule:nonzero;"/>
        </g>
        <g transform="matrix(3.87771,0,0,3.88239,-480.143,-80.6917)">
            <path d="M0,28.769C-0.583,28.186 -0.583,27.231 0,26.648L26.647,0.001C27.23,-0.583 28.185,-0.583 28.768,0.001C29.352,0.584 29.352,1.539 28.768,2.122L2.121,28.769C1.538,29.352 0.583,29.352 0,28.769" style="fill:rgb(0,164,164);fill-rule:nonzero;"/>
        </g>
        <g transform="matrix(3.87771,0,0,3.88239,-822.849,-359.45)">
            <path d="M0,28.769C-0.583,28.186 -0.583,27.231 0,26.648L26.647,0.001C27.23,-0.583 28.185,-0.583 28.768,0.001C29.352,0.584 29.352,1.539 28.768,2.122L2.121,28.769C1.538,29.352 0.583,29.352 0,28.769" style="fill:rgb(213,221,233);fill-rule:nonzero;"/>
        </g>
        <g transform="matrix(3.87771,0,0,3.88239,-713.793,-70.7963)">
            <path d="M0,-15.489C-1.079,-16.568 -2.845,-16.568 -3.924,-15.489L-15.489,-3.923C-16.568,-2.844 -16.568,-1.079 -15.489,0C-14.41,1.079 -12.645,1.079 -11.566,0L0,-11.565C1.079,-12.644 1.079,-14.41 0,-15.489" style="fill:rgb(0,164,164);fill-rule:nonzero;"/>
        </g>
        <g transform="matrix(3.87771,0,0,3.88239,-365.81,99.4191)">
            <path d="M0,27.526C-1.917,25.609 -1.917,22.471 0,20.553L20.554,-0.001C22.472,-1.918 25.609,-1.918 27.527,-0.001C29.445,1.917 29.445,5.055 27.527,6.972L6.973,27.526C5.055,29.444 1.918,29.444 0,27.526" style="fill:rgb(0,210,204);fill-rule:nonzero;"/>
        </g>
        <g transform="matrix(3.87771,0,0,3.88239,-718.623,81.7923)">
            <path d="M0,-7.936C-1.277,-9.212 -3.366,-9.212 -4.642,-7.936L-7.935,-4.643C-9.212,-3.366 -9.212,-1.277 -7.935,-0.001C-6.659,1.276 -4.57,1.276 -3.293,-0.001L0,-3.294C1.276,-4.57 1.276,-6.659 0,-7.936" style="fill:rgb(0,210,204);fill-rule:nonzero;"/>
        </g>
        <g transform="matrix(3.87771,0,0,3.88239,-423.997,100.91)">
            <path d="M0,-7.935C-1.277,-9.212 -3.365,-9.212 -4.642,-7.935L-7.935,-4.642C-9.212,-3.365 -9.212,-1.276 -7.935,0C-6.659,1.277 -4.57,1.277 -3.293,0L0,-3.293C1.277,-4.569 1.277,-6.658 0,-7.935" style="fill:rgb(0,85,113);fill-rule:nonzero;"/>
        </g>
        <g transform="matrix(4.30946,0,0,4.30946,-82.4779,254.712)">
            <path d="M0,96.756C-1.296,95.46 -1.296,93.338 0,92.042L92.042,0C93.338,-1.296 95.459,-1.296 96.756,0C98.052,1.297 98.052,3.418 96.756,4.714L4.714,96.756C3.418,98.052 1.296,98.052 0,96.756" style="fill:rgb(0,101,126);fill-rule:nonzero;"/>
        </g>
        <g transform="matrix(4.30946,0,0,4.30946,10.6028,321.646)">
            <path d="M0,27.526C-1.918,25.609 -1.918,22.471 0,20.553L20.554,-0.001C22.472,-1.918 25.609,-1.918 27.527,-0.001C29.444,1.917 29.444,5.055 27.527,6.972L6.973,27.526C5.055,29.444 1.917,29.444 0,27.526" style="fill:rgb(213,221,233);fill-rule:nonzero;"/>
        </g>
        <g transform="matrix(4.30946,0,0,4.30946,-101.664,371.266)">
            <path d="M0,-15.984C-1.113,-17.097 -2.935,-17.097 -4.049,-15.984L-15.983,-4.05C-17.096,-2.936 -17.096,-1.114 -15.983,-0.001C-14.87,1.113 -13.048,1.113 -11.934,-0.001L0,-11.935C1.113,-13.049 1.113,-14.871 0,-15.984" style="fill:rgb(0,85,113);fill-rule:nonzero;"/>
        </g>
        <g transform="matrix(4.30946,0,0,4.30946,-250.929,537.914)">
            <path d="M0,28.769C-0.583,28.186 -0.583,27.231 0,26.648L26.647,0.001C27.23,-0.583 28.185,-0.583 28.768,0.001C29.352,0.584 29.352,1.539 28.768,2.122L2.121,28.769C1.538,29.352 0.583,29.352 0,28.769" style="fill:rgb(0,164,164);fill-rule:nonzero;"/>
        </g>
        <g transform="matrix(4.30946,0,0,4.30946,504.457,131.787)">
            <path d="M0,-15.489C-1.079,-16.568 -2.845,-16.568 -3.924,-15.489L-15.489,-3.923C-16.568,-2.844 -16.568,-1.079 -15.489,0C-14.41,1.079 -12.645,1.079 -11.566,0L0,-11.565C1.079,-12.644 1.079,-14.41 0,-15.489" style="fill:rgb(0,210,204);fill-rule:nonzero;"/>
        </g>
        <g transform="matrix(4.30946,0,0,4.30946,-140.766,549.052)">
            <path d="M0,-15.489C-1.079,-16.568 -2.845,-16.568 -3.924,-15.489L-15.489,-3.923C-16.568,-2.844 -16.568,-1.079 -15.489,0C-14.41,1.079 -12.645,1.079 -11.566,0L0,-11.565C1.079,-12.644 1.079,-14.41 0,-15.489" style="fill:rgb(0,164,164);fill-rule:nonzero;"/>
        </g>
        <g transform="matrix(6.33993,0,0,6.33993,818.062,431.168)">
            <path d="M0,-7.935C-1.277,-9.212 -3.366,-9.212 -4.642,-7.935L-7.935,-4.642C-9.212,-3.365 -9.212,-1.276 -7.935,0C-6.659,1.277 -4.57,1.277 -3.293,0L0,-3.293C1.277,-4.57 1.277,-6.658 0,-7.935" style="fill:rgb(0,101,126);fill-rule:nonzero;"/>
        </g>
        <g transform="matrix(4.30946,0,0,4.30946,-7.40516,581.268)">
            <path d="M0,-7.935C-1.277,-9.212 -3.366,-9.212 -4.642,-7.935L-7.935,-4.642C-9.212,-3.365 -9.212,-1.276 -7.935,0C-6.659,1.277 -4.57,1.277 -3.293,0L0,-3.293C1.277,-4.57 1.277,-6.659 0,-7.935" style="fill:rgb(0,210,204);fill-rule:nonzero;"/>
        </g>
        <g transform="matrix(4.30946,0,0,4.30946,-169.044,170.905)">
            <path d="M0,47.384C-0.583,46.801 -0.583,45.846 0,45.263L45.263,0C45.846,-0.583 46.801,-0.583 47.384,0C47.967,0.583 47.967,1.538 47.384,2.121L2.121,47.384C1.538,47.967 0.583,47.967 0,47.384" style="fill:rgb(0,164,164);fill-rule:nonzero;"/>
        </g>
        <g transform="matrix(4.30946,0,0,4.30946,-146.134,718.422)">
            <path d="M0,-7.935C-1.277,-9.212 -3.366,-9.212 -4.642,-7.935L-7.935,-4.642C-9.212,-3.365 -9.212,-1.276 -7.935,0C-6.659,1.277 -4.57,1.277 -3.293,0L0,-3.293C1.277,-4.569 1.277,-6.658 0,-7.935" style="fill:rgb(0,210,204);fill-rule:nonzero;"/>
        </g>
        <g transform="matrix(4.30946,0,0,4.30946,-188.531,739.496)">
            <path d="M0,-7.936C-1.277,-9.212 -3.365,-9.212 -4.642,-7.936L-7.935,-4.643C-9.212,-3.366 -9.212,-1.277 -7.935,-0.001C-6.659,1.276 -4.57,1.276 -3.293,-0.001L0,-3.294C1.277,-4.57 1.277,-6.659 0,-7.936" style="fill:rgb(0,85,113);fill-rule:nonzero;"/>
        </g>
        <g transform="matrix(3.87771,0,0,3.88239,303.475,-357.188)">
            <path d="M0,96.756C-1.296,95.46 -1.296,93.338 0,92.042L92.042,0C93.338,-1.296 95.459,-1.296 96.756,0C98.052,1.297 98.052,3.418 96.756,4.714L4.714,96.756C3.418,98.052 1.296,98.052 0,96.756" style="fill:rgb(0,101,126);fill-rule:nonzero;"/>
        </g>
        <g transform="matrix(3.87771,0,0,3.88239,-104.117,166.089)">
            <path d="M0,25.479C-1.296,24.183 -1.296,22.061 0,20.765L20.765,0C22.061,-1.296 24.182,-1.296 25.479,0C26.775,1.297 26.775,3.418 25.479,4.714L4.714,25.479C3.418,26.775 1.296,26.775 0,25.479" style="fill:rgb(0,101,126);fill-rule:nonzero;"/>
        </g>
        <g transform="matrix(3.87771,0,0,3.88239,339.108,-302.019)">
            <path d="M0,27.526C-1.918,25.609 -1.918,22.471 0,20.553L20.554,-0.001C22.471,-1.918 25.609,-1.918 27.527,-0.001C29.444,1.917 29.444,5.054 27.527,6.972L6.973,27.526C5.055,29.444 1.918,29.444 0,27.526" style="fill:rgb(213,221,233);fill-rule:nonzero;"/>
        </g>
        <g transform="matrix(3.87771,0,0,3.88239,128.414,-274.849)">
            <path d="M0,-15.983C-1.113,-17.096 -2.935,-17.096 -4.049,-15.983L-15.983,-4.049C-17.097,-2.935 -17.097,-1.113 -15.983,0C-14.87,1.113 -13.048,1.113 -11.934,0L0,-11.934C1.113,-13.048 1.113,-14.87 0,-15.983" style="fill:rgb(0,85,113);fill-rule:nonzero;"/>
        </g>
        <g transform="matrix(3.87771,0,0,3.88239,-268.6,60.9142)">
            <path d="M0,28.769C-0.583,28.186 -0.583,27.231 0,26.648L26.647,0.001C27.23,-0.583 28.185,-0.583 28.768,0.001C29.352,0.584 29.352,1.539 28.768,2.122L2.121,28.769C1.538,29.352 0.583,29.352 0,28.769" style="fill:rgb(213,221,233);fill-rule:nonzero;"/>
        </g>
        <g transform="matrix(3.87771,0,0,3.88239,-24.0629,-127.268)">
            <path d="M0,28.769C-0.583,28.186 -0.583,27.231 0,26.648L26.647,0.001C27.23,-0.583 28.185,-0.583 28.768,0.001C29.352,0.584 29.352,1.539 28.768,2.122L2.121,28.769C1.538,29.352 0.583,29.352 0,28.769" style="fill:rgb(0,164,164);fill-rule:nonzero;"/>
        </g>
        <g transform="matrix(3.87771,0,0,3.88239,-88.0913,-140.459)">
            <path d="M0,-15.489C-1.079,-16.568 -2.845,-16.568 -3.924,-15.489L-15.489,-3.923C-16.568,-2.844 -16.568,-1.079 -15.489,0C-14.41,1.079 -12.645,1.079 -11.566,0L0,-11.565C1.079,-12.644 1.079,-14.41 0,-15.489" style="fill:rgb(0,164,164);fill-rule:nonzero;"/>
        </g>
        <g transform="matrix(3.87771,0,0,3.88239,141.583,-93.9074)">
            <path d="M0,-7.935C-1.277,-9.212 -3.366,-9.212 -4.642,-7.935L-7.935,-4.642C-9.212,-3.365 -9.212,-1.276 -7.935,0C-6.659,1.277 -4.57,1.277 -3.293,0L0,-3.293C1.277,-4.57 1.277,-6.658 0,-7.935" style="fill:rgb(0,210,204);fill-rule:nonzero;"/>
        </g>
        <g transform="matrix(3.87771,0,0,3.88239,177.459,-437.821)">
            <path d="M0,47.384C-0.583,46.801 -0.583,45.846 0,45.263L45.263,0C45.846,-0.583 46.801,-0.583 47.384,0C47.967,0.583 47.967,1.538 47.384,2.121L2.121,47.384C1.538,47.967 0.583,47.967 0,47.384" style="fill:rgb(0,164,164);fill-rule:nonzero;"/>
        </g>
        <g transform="matrix(3.87771,0,0,3.88239,-92.9217,12.1293)">
            <path d="M0,-7.936C-1.277,-9.212 -3.366,-9.212 -4.642,-7.936L-7.935,-4.643C-9.212,-3.366 -9.212,-1.277 -7.935,-0.001C-6.659,1.276 -4.57,1.276 -3.293,-0.001L0,-3.294C1.277,-4.57 1.277,-6.659 0,-7.936" style="fill:rgb(0,210,204);fill-rule:nonzero;"/>
        </g>
        <g transform="matrix(3.87771,0,0,3.88239,32.0837,54.3336)">
            <path d="M0,-7.935C-1.277,-9.212 -3.366,-9.212 -4.642,-7.935L-7.935,-4.642C-9.212,-3.365 -9.212,-1.276 -7.935,0C-6.659,1.277 -4.57,1.277 -3.293,0L0,-3.293C1.276,-4.57 1.276,-6.658 0,-7.935" style="fill:rgb(0,85,113);fill-rule:nonzero;"/>
        </g>
        <g transform="matrix(3.87771,0,0,3.88239,533.763,115.057)">
            <path d="M0,-27.526C1.917,-25.609 1.917,-22.471 0,-20.553L-20.554,0.001C-22.472,1.918 -25.609,1.918 -27.527,0.001C-29.444,-1.917 -29.444,-5.055 -27.527,-6.972L-6.973,-27.526C-5.055,-29.444 -1.918,-29.444 0,-27.526" style="fill:rgb(213,221,233);fill-rule:nonzero;"/>
        </g>
        <g transform="matrix(3.87771,0,0,3.88239,803.633,108.086)">
            <path d="M0,15.984C1.113,17.097 2.935,17.097 4.049,15.984L15.983,4.049C17.096,2.936 17.096,1.114 15.983,0.001C14.87,-1.113 13.048,-1.113 11.934,0.001L0,11.935C-1.113,13.049 -1.113,14.871 0,15.984" style="fill:rgb(0,85,113);fill-rule:nonzero;"/>
        </g>
        <g transform="matrix(3.87771,0,0,3.88239,763.957,-101.93)">
            <path d="M0,-28.769C0.583,-28.186 0.583,-27.231 0,-26.648L-26.647,-0.001C-27.23,0.583 -28.185,0.583 -28.768,-0.001C-29.352,-0.584 -29.352,-1.539 -28.768,-2.122L-2.121,-28.769C-1.538,-29.352 -0.583,-29.352 0,-28.769" style="fill:rgb(0,164,164);fill-rule:nonzero;"/>
        </g>
        <g transform="matrix(3.87771,0,0,3.88239,269.545,49.6376)">
            <path d="M0,15.489C1.079,16.568 2.845,16.568 3.924,15.489L15.489,3.923C16.568,2.844 16.568,1.079 15.489,0C14.41,-1.079 12.645,-1.079 11.566,0L0,11.565C-1.079,12.644 -1.079,14.41 0,15.489" style="fill:rgb(0,210,204);fill-rule:nonzero;"/>
        </g>
        <g transform="matrix(3.87771,0,0,3.88239,838.818,-52.0809)">
            <path d="M0,15.489C1.079,16.568 2.845,16.568 3.924,15.489L15.489,3.923C16.568,2.844 16.568,1.079 15.489,0C14.41,-1.079 12.645,-1.079 11.566,0L0,11.565C-1.079,12.644 -1.079,14.41 0,15.489" style="fill:rgb(0,164,164);fill-rule:nonzero;"/>
        </g>
        <g transform="matrix(4.90591,0,0,4.91183,106.284,-118.36)">
            <path d="M0,7.935C1.277,9.212 3.366,9.212 4.642,7.935L7.935,4.642C9.212,3.365 9.212,1.276 7.935,0C6.659,-1.277 4.57,-1.277 3.293,0L0,3.293C-1.276,4.57 -1.276,6.658 0,7.935" style="fill:rgb(0,101,126);fill-rule:nonzero;"/>
        </g>
        <g transform="matrix(3.87771,0,0,3.88239,445.909,-174.854)">
            <path d="M0,7.935C1.277,9.212 3.365,9.212 4.642,7.935L7.935,4.642C9.212,3.365 9.212,1.276 7.935,0C6.659,-1.277 4.57,-1.277 3.293,0L0,3.293C-1.277,4.569 -1.277,6.658 0,7.935" style="fill:rgb(0,210,204);fill-rule:nonzero;"/>
        </g>
        <g transform="matrix(3.87771,0,0,3.88239,701.108,265.365)">
            <path d="M0,-47.384C0.583,-46.801 0.583,-45.846 0,-45.263L-45.263,0C-45.846,0.583 -46.801,0.583 -47.384,0C-47.967,-0.583 -47.967,-1.538 -47.384,-2.121L-2.121,-47.384C-1.538,-47.967 -0.583,-47.967 0,-47.384" style="fill:rgb(0,164,164);fill-rule:nonzero;"/>
        </g>
        <g transform="matrix(3.87771,0,0,3.88239,868.739,-310.739)">
            <path d="M0,7.935C1.277,9.212 3.365,9.212 4.642,7.935L7.935,4.642C9.212,3.365 9.212,1.276 7.935,0C6.659,-1.277 4.57,-1.277 3.293,0L0,3.293C-1.277,4.569 -1.277,6.658 0,7.935" style="fill:rgb(0,85,113);fill-rule:nonzero;"/>
        </g>
        <g transform="matrix(4.30946,0,0,4.30946,-331.856,389.144)">
            <path d="M0,-28.769C0.583,-28.186 0.583,-27.231 0,-26.648L-26.647,-0.001C-27.23,0.583 -28.185,0.583 -28.768,-0.001C-29.352,-0.584 -29.352,-1.539 -28.768,-2.122L-2.121,-28.769C-1.538,-29.352 -0.583,-29.352 0,-28.769" style="fill:rgb(213,221,233);fill-rule:nonzero;"/>
        </g>
        <g transform="matrix(4.30946,0,0,4.30946,-615.658,557.336)">
            <path d="M0,-28.769C0.583,-28.186 0.583,-27.231 0,-26.648L-26.647,-0.001C-27.23,0.583 -28.185,0.583 -28.768,-0.001C-29.352,-0.584 -29.352,-1.539 -28.768,-2.122L-2.121,-28.769C-1.538,-29.352 -0.583,-29.352 0,-28.769" style="fill:rgb(0,164,164);fill-rule:nonzero;"/>
        </g>
        <g transform="matrix(4.30946,0,0,4.30946,-532.463,612.669)">
            <path d="M0,15.489C1.079,16.568 2.845,16.568 3.924,15.489L15.489,3.923C16.568,2.844 16.568,1.079 15.489,0C14.41,-1.079 12.645,-1.079 11.566,0L0,11.565C-1.079,12.644 -1.079,14.41 0,15.489" style="fill:rgb(0,164,164);fill-rule:nonzero;"/>
        </g>
        <g transform="matrix(4.30946,0,0,4.30946,-527.095,443.299)">
            <path d="M0,7.935C1.277,9.212 3.366,9.212 4.642,7.935L7.935,4.642C9.212,3.365 9.212,1.276 7.935,0C6.659,-1.277 4.57,-1.277 3.293,0L0,3.293C-1.276,4.569 -1.276,6.658 0,7.935" style="fill:rgb(0,210,204);fill-rule:nonzero;"/>
        </g>
        <g transform="matrix(4.30946,0,0,4.30946,-700.719,296.941)">
            <path d="M0,7.935C1.277,9.212 3.366,9.212 4.642,7.935L7.935,4.642C9.212,3.365 9.212,1.276 7.935,0C6.659,-1.277 4.57,-1.277 3.293,0L0,3.293C-1.277,4.57 -1.277,6.659 0,7.935" style="fill:rgb(0,85,113);fill-rule:nonzero;"/>
        </g>
    </g>
</svg>
