<?xml version="1.0" encoding="UTF-8" standalone="no"?>
<!DOCTYPE svg PUBLIC "-//W3C//DTD SVG 1.1//EN" "http://www.w3.org/Graphics/SVG/1.1/DTD/svg11.dtd">
<svg width="100%" height="100%" viewBox="0 0 800 200" version="1.1" xmlns="http://www.w3.org/2000/svg" xmlns:xlink="http://www.w3.org/1999/xlink" xml:space="preserve" xmlns:serif="http://www.serif.com/" style="fill-rule:evenodd;clip-rule:evenodd;stroke-linejoin:round;stroke-miterlimit:1.41421;">
    <g transform="matrix(1,0,0,1,119.425,151.825)">
        <path d="M59.25,-28.65L75.45,-18L75.3,-17.85C71.8,-11.85 67.075,-7.15 61.125,-3.75C55.175,-0.35 48.75,1.35 41.85,1.35C36.45,1.35 31.4,0.325 26.7,-1.725C22,-3.775 17.9,-6.55 14.4,-10.05C10.9,-13.55 8.125,-17.65 6.075,-22.35C4.025,-27.05 3,-32.05 3,-37.35C3,-42.65 4.025,-47.65 6.075,-52.35C8.125,-57.05 10.9,-61.15 14.4,-64.65C17.9,-68.15 22,-70.925 26.7,-72.975C31.4,-75.025 36.45,-76.05 41.85,-76.05C48.75,-76.05 55.175,-74.35 61.125,-70.95C67.075,-67.55 71.8,-62.85 75.3,-56.85L75.45,-56.7L59.1,-46.05L58.95,-46.2C57.35,-49.9 55.025,-52.9 51.975,-55.2C48.925,-57.5 45.55,-58.65 41.85,-58.65C39.15,-58.65 36.625,-58.075 34.275,-56.925C31.925,-55.775 29.9,-54.225 28.2,-52.275C26.5,-50.325 25.15,-48.075 24.15,-45.525C23.15,-42.975 22.65,-40.25 22.65,-37.35C22.65,-34.45 23.15,-31.75 24.15,-29.25C25.15,-26.75 26.5,-24.575 28.2,-22.725C29.9,-20.875 31.925,-19.425 34.275,-18.375C36.625,-17.325 39.15,-16.8 41.85,-16.8C45.55,-16.8 48.925,-17.825 51.975,-19.875C55.025,-21.925 57.35,-24.8 58.95,-28.5L59.1,-28.8L59.25,-28.65Z" style="fill:rgb(39,41,56);fill-rule:nonzero;"/>
        <path d="M83.1,-105L103.2,-105L103.05,0L82.95,0L83.1,-105ZM151.95,-66C156.45,-60 158.7,-50.5 158.7,-37.5L158.7,0L138.6,0L138.6,-37.5C138.6,-40.2 138.525,-42.8 138.375,-45.3C138.225,-47.8 137.7,-50 136.8,-51.9C135.9,-53.8 134.45,-55.3 132.45,-56.4C130.45,-57.5 127.6,-58.05 123.9,-58.05C121,-58.05 117.85,-57.25 114.45,-55.65L114.3,-55.5L114.15,-55.8L106.95,-68.7L107.1,-68.85C109.7,-71.15 112.6,-72.875 115.8,-74.025C119,-75.175 122.5,-75.75 126.3,-75.75C138.4,-75.75 146.95,-72.5 151.95,-66Z" style="fill:rgb(39,41,56);fill-rule:nonzero;"/>
        <path d="M205.05,-76.2C210.45,-76.2 215.55,-75.2 220.35,-73.2C225.15,-71.2 229.3,-68.45 232.8,-64.95C236.3,-61.45 239.075,-57.35 241.125,-52.65C243.175,-47.95 244.2,-42.9 244.2,-37.5C244.2,-36.1 244.1,-34.7 243.9,-33.3C243.7,-31.9 243.45,-30.45 243.15,-28.95L243.15,-28.8L236.1,-28.8L222.9,-28.8L204.9,-28.8L195.3,-43.95L223.5,-43.95C222.2,-48.15 219.925,-51.6 216.675,-54.3C213.425,-57 209.55,-58.35 205.05,-58.35C202.35,-58.35 199.825,-57.8 197.475,-56.7C195.125,-55.6 193.1,-54.125 191.4,-52.275C189.7,-50.425 188.35,-48.225 187.35,-45.675C186.35,-43.125 185.85,-40.4 185.85,-37.5C185.85,-35.2 186.3,-32.825 187.2,-30.375C188.1,-27.925 189.4,-25.675 191.1,-23.625C192.8,-21.575 194.825,-19.875 197.175,-18.525C199.525,-17.175 202.15,-16.5 205.05,-16.5C207.85,-16.5 210.375,-16.9 212.625,-17.7C214.875,-18.5 217.05,-20.2 219.15,-22.8L219.3,-22.95L219.3,-22.8L236.7,-15L236.55,-14.85C233.05,-9.75 228.5,-5.8 222.9,-3C217.3,-0.2 211.35,1.2 205.05,1.2C199.65,1.2 194.6,0.2 189.9,-1.8C185.2,-3.8 181.1,-6.55 177.6,-10.05C174.1,-13.55 171.325,-17.65 169.275,-22.35C167.225,-27.05 166.2,-32.1 166.2,-37.5C166.2,-42.9 167.225,-47.95 169.275,-52.65C171.325,-57.35 174.1,-61.45 177.6,-64.95C181.1,-68.45 185.2,-71.2 189.9,-73.2C194.6,-75.2 199.65,-76.2 205.05,-76.2ZM202.5,-82.05L191.4,-99.3L211.8,-99.3L218.7,-82.05L202.5,-82.05Z" style="fill:rgb(39,41,56);fill-rule:nonzero;"/>
        <path d="M306.45,-28.65L322.65,-18L322.5,-17.85C319,-11.85 314.275,-7.15 308.325,-3.75C302.375,-0.35 295.95,1.35 289.05,1.35C283.65,1.35 278.6,0.325 273.9,-1.725C269.2,-3.775 265.1,-6.55 261.6,-10.05C258.1,-13.55 255.325,-17.65 253.275,-22.35C251.225,-27.05 250.2,-32.05 250.2,-37.35C250.2,-42.65 251.225,-47.65 253.275,-52.35C255.325,-57.05 258.1,-61.15 261.6,-64.65C265.1,-68.15 269.2,-70.925 273.9,-72.975C278.6,-75.025 283.65,-76.05 289.05,-76.05C295.95,-76.05 302.375,-74.35 308.325,-70.95C314.275,-67.55 319,-62.85 322.5,-56.85L322.65,-56.7L306.3,-46.05L306.15,-46.2C304.55,-49.9 302.225,-52.9 299.175,-55.2C296.125,-57.5 292.75,-58.65 289.05,-58.65C286.35,-58.65 283.825,-58.075 281.475,-56.925C279.125,-55.775 277.1,-54.225 275.4,-52.275C273.7,-50.325 272.35,-48.075 271.35,-45.525C270.35,-42.975 269.85,-40.25 269.85,-37.35C269.85,-34.45 270.35,-31.75 271.35,-29.25C272.35,-26.75 273.7,-24.575 275.4,-22.725C277.1,-20.875 279.125,-19.425 281.475,-18.375C283.825,-17.325 286.35,-16.8 289.05,-16.8C292.75,-16.8 296.125,-17.825 299.175,-19.875C302.225,-21.925 304.55,-24.8 306.15,-28.5L306.3,-28.8L306.45,-28.65Z" style="fill:rgb(39,41,56);fill-rule:nonzero;"/>
        <path d="M330.3,-105L350.4,-105L350.25,0L330.15,0L330.3,-105ZM399.15,-66C403.65,-60 405.9,-50.5 405.9,-37.5L405.9,0L385.8,0L385.8,-37.5C385.8,-40.2 385.725,-42.8 385.575,-45.3C385.425,-47.8 384.9,-50 384,-51.9C383.1,-53.8 381.65,-55.3 379.65,-56.4C377.65,-57.5 374.8,-58.05 371.1,-58.05C368.2,-58.05 365.05,-57.25 361.65,-55.65L361.5,-55.5L361.35,-55.8L354.15,-68.7L354.3,-68.85C356.9,-71.15 359.8,-72.875 363,-74.025C366.2,-75.175 369.7,-75.75 373.5,-75.75C385.6,-75.75 394.15,-72.5 399.15,-66Z" style="fill:rgb(39,41,56);fill-rule:nonzero;"/>
        <path d="M495.45,-75L495.45,0L475.8,0L475.8,-37.5C475.8,-40.4 475.25,-43.1 474.15,-45.6C473.05,-48.1 471.525,-50.3 469.575,-52.2C467.625,-54.1 465.375,-55.575 462.825,-56.625C460.275,-57.675 457.6,-58.2 454.8,-58.2C451.9,-58.2 449.2,-57.65 446.7,-56.55C444.2,-55.45 441.975,-53.975 440.025,-52.125C438.075,-50.275 436.55,-48.075 435.45,-45.525C434.35,-42.975 433.8,-40.25 433.8,-37.35C433.8,-34.55 434.35,-31.9 435.45,-29.4C436.55,-26.9 438.075,-24.7 440.025,-22.8C441.975,-20.9 444.2,-19.4 446.7,-18.3C449.2,-17.2 451.9,-16.65 454.8,-16.65C457.9,-16.65 460.55,-17.2 462.75,-18.3L462.9,-18.3L462.9,-18L470.4,-4.65L470.25,-4.5C465.35,-0.7 459.3,1.2 452.1,1.2C446.8,1.2 441.8,0.2 437.1,-1.8C432.4,-3.8 428.3,-6.55 424.8,-10.05C421.3,-13.55 418.525,-17.65 416.475,-22.35C414.425,-27.05 413.4,-32.05 413.4,-37.35C413.4,-42.75 414.425,-47.8 416.475,-52.5C418.525,-57.2 421.3,-61.3 424.8,-64.8C428.3,-68.3 432.4,-71.075 437.1,-73.125C441.8,-75.175 446.8,-76.2 452.1,-76.2C457.3,-76.2 461.85,-75.225 465.75,-73.275C469.65,-71.325 473,-68.5 475.8,-64.8L475.8,-75L495.45,-75Z" style="fill:rgb(39,41,56);fill-rule:nonzero;"/>
        <path d="M558.15,-67.2L558.15,-50.55L547.05,-50.55L537.75,-67.2L558.15,-67.2ZM535.2,-25.65C535.2,-23.35 536.025,-21.4 537.675,-19.8C539.325,-18.2 541.3,-17.4 543.6,-17.4L558.15,-17.4L558.15,0L543.6,0C539.7,0 536.025,-0.725 532.575,-2.175C529.125,-3.625 526.125,-5.625 523.575,-8.175C521.025,-10.725 519,-13.7 517.5,-17.1C516,-20.5 515.25,-24.15 515.25,-28.05L515.25,-50.55L504.45,-50.55L504.45,-67.2L515.25,-67.2L515.25,-94.35L535.2,-94.35L535.2,-25.65Z" style="fill:rgb(39,41,56);fill-rule:nonzero;"/>
    </g>
</svg>
